<?xml version="1.0" encoding="UTF-8" standalone="no"?>
<!-- Created with Inkscape (http://www.inkscape.org/) -->

<svg
   xmlns:dc="http://purl.org/dc/elements/1.1/"
   xmlns:cc="http://creativecommons.org/ns#"
   xmlns:rdf="http://www.w3.org/1999/02/22-rdf-syntax-ns#"
   xmlns:svg="http://www.w3.org/2000/svg"
   xmlns="http://www.w3.org/2000/svg"
   xmlns:sodipodi="http://sodipodi.sourceforge.net/DTD/sodipodi-0.dtd"
   xmlns:inkscape="http://www.inkscape.org/namespaces/inkscape"
   width="762"
   height="762"
   viewBox="0 0 201.6125 201.61251"
   version="1.1"
   id="svg8"
   inkscape:version="0.92.3 (2405546, 2018-03-11)"
   sodipodi:docname="drawing.svg">
  <defs
     id="defs2" />
  <sodipodi:namedview
     id="base"
     pagecolor="#ffffff"
     bordercolor="#666666"
     borderopacity="1.0"
     inkscape:pageopacity="0.0"
     inkscape:pageshadow="2"
     inkscape:zoom="0.49497475"
     inkscape:cx="415.33509"
     inkscape:cy="248.0188"
     inkscape:document-units="mm"
     inkscape:current-layer="layer1"
     showgrid="false"
     inkscape:window-width="1366"
     inkscape:window-height="705"
     inkscape:window-x="-8"
     inkscape:window-y="-8"
     inkscape:window-maximized="1"
     units="px"
     inkscape:pagecheckerboard="false"
     showborder="true" />
  <metadata
     id="metadata5">
    <rdf:RDF>
      <cc:Work
         rdf:about="">
        <dc:format>image/svg+xml</dc:format>
        <dc:type
           rdf:resource="http://purl.org/dc/dcmitype/StillImage" />
        <dc:title></dc:title>
      </cc:Work>
    </rdf:RDF>
  </metadata>
  <g
     inkscape:label="Layer 1"
     inkscape:groupmode="layer"
     id="layer1"
     transform="translate(0,-95.387483)">
    <g
       id="g876"
       transform="translate(-4.7893621,59.323091)">
      <circle
         r="100.7606"
         cy="136.90555"
         cx="106.06839"
         id="path823"
         style="fill:#ef4011;fill-opacity:1;stroke:none;stroke-width:0.23977864" />
      <g
         transform="matrix(11.761,0,0,11.761,35.758762,78.686205)"
         id="imagebot_2"
         label="Layer 1">
        <path
           style="clip-rule:nonzero;fill:#ffffff;fill-rule:nonzero;stroke-width:1.5;stroke-linecap:round;stroke-linejoin:round;stroke-miterlimit:4;stroke-dashoffset:0"
           inkscape:connector-curvature="0"
           transform="translate(985.731,-432.976)"
           label="Layer 1"
           stroke-miterlimit="4"
           id="imagebot_3"
           d="m -975.37029,434.31175 c 0,0.73782 -0.59812,1.33594 -1.33594,1.33594 -0.73782,0 -1.33595,-0.59812 -1.33595,-1.33594 0,-0.73782 0.59813,-1.33594 1.33595,-1.33594 0.73782,0 1.33594,0.59812 1.33594,1.33594 z m -6.74269,0.40174 c -0.76416,0 -0.76416,1.14622 0,1.14622 h 2.2607 l -2.49745,2.49743 h -2.65585 c -0.9678,-0.0137 -0.9678,1.44505 0,1.43137 h 2.95224 c 0.18999,4.4e-4 0.37234,-0.0746 0.50689,-0.20875 l 0.98411,-0.98408 0.87409,0.87224 -2.00725,2.00729 c -0.67465,0.67592 0.33923,1.68794 1.01388,1.01202 l 2.51234,-2.51237 c 0.27931,-0.2795 0.27931,-0.73253 0,-1.01201 l -0.75481,-0.75483 1.08288,-1.08282 0.47149,0.47153 c 0.10726,0.10728 0.25268,0.1676 0.40441,0.16774 h 1.59912 c 0.76416,0 0.76416,-1.14621 0,-1.14621 h -1.36237 l -0.78468,-0.78465 -0.95233,-0.95238 c -0.10726,-0.1073 -0.25278,-0.16764 -0.40451,-0.16774 z" />
        <title
           id="title860">Layer 1</title>
      </g>
    </g>
  </g>
  <g
     inkscape:groupmode="layer"
     id="layer2"
     inkscape:label="Layer 2"
     transform="translate(0,-95.387483)" />
</svg>
