<?xml version="1.0" standalone="no"?>
<!DOCTYPE svg PUBLIC "-//W3C//DTD SVG 20010904//EN"
 "http://www.w3.org/TR/2001/REC-SVG-20010904/DTD/svg10.dtd">
<svg version="1.0" xmlns="http://www.w3.org/2000/svg"
 width="700.000000pt" height="700.000000pt" viewBox="0 0 700.000000 700.000000"
 preserveAspectRatio="xMidYMid meet">
<metadata>
Created by potrace 1.11, written by Peter Selinger 2001-2013
</metadata>
<g transform="translate(0.000000,700.000000) scale(0.100000,-0.100000)"
fill="#000000" stroke="none">
<path d="M4630 5504 c-101 -27 -180 -74 -257 -151 -40 -39 -73 -78 -73 -84 0
-7 -6 -20 -14 -28 -17 -20 -54 -121 -62 -169 -19 -116 -4 -222 47 -331 134
-287 490 -396 767 -235 66 38 172 150 204 214 151 304 16 651 -300 768 -84 31
-228 38 -312 16z"/>
<path d="M2485 4803 c-11 -3 -38 -16 -61 -30 -149 -93 -137 -321 21 -406 39
-21 49 -22 528 -23 268 -1 490 -3 492 -6 2 -2 -224 -231 -503 -509 l-507 -506
-550 0 c-302 0 -569 -3 -593 -6 -56 -8 -128 -44 -160 -82 -98 -116 -99 -302
-2 -404 42 -44 105 -80 153 -87 18 -2 320 -4 672 -4 698 -1 698 -1 773 56 20
16 128 119 238 229 l202 201 177 -179 178 -178 -416 -417 c-230 -229 -429
-434 -444 -454 -100 -142 -36 -343 134 -424 73 -34 153 -35 227 -1 47 22 137
107 603 574 409 409 554 560 571 595 33 68 37 138 11 220 -21 65 -27 73 -195
242 -96 97 -174 178 -174 180 0 3 99 104 219 224 l219 218 108 -109 c159 -160
124 -151 562 -152 236 0 379 3 407 10 104 27 172 126 163 239 -8 99 -49 160
-133 197 -46 20 -64 22 -349 21 l-301 0 -370 368 c-276 276 -381 374 -415 389
-44 20 -64 20 -755 20 -390 -1 -719 -3 -730 -6z"/>
</g>
</svg>
