<svg version="1" xmlns="http://www.w3.org/2000/svg" width="933.333" height="933.333" viewBox="0 0 700.000000 700.000000"><path d="M331.4 1C216 7.6 112.1 70.5 51.5 170.5c-24.3 40.1-40.1 86.1-47.1 137-2.6 18.3-2.6 67.5 0 85.5 8 57.1 25.4 104.3 54.9 149 47.5 71.8 118 123.1 200.1 145.5 31.9 8.7 57.4 12 92.6 11.9 25.8 0 35.4-.8 58-4.5 97.3-16.1 184.2-74 237.6-158.4 26.5-41.8 44.3-91.3 50.8-141 2.2-16.3 2.2-74.4.1-90.1-5.5-40.7-16.4-76.5-34.2-111.9C624.7 114.8 557.6 54.2 475.5 23 441.7 10.2 409 3.3 370.5 1c-18.4-1.1-19.6-1.1-39.1 0zm162.8 150.3c22.2 8.1 36 27.9 36 51.6 0 14.9-4.9 26.7-15.7 37.7-10.6 10.7-23.9 16.4-38.5 16.4-24.1 0-45.3-16.2-52.4-39.9-2.3-7.8-2.1-22.2.4-30.2 2.1-6.9 7.5-16.7 11.8-21.3 7.3-7.8 18.9-14.3 29.7-16.6 7-1.6 21.3-.4 28.7 2.3zM397 221.1c3.4 1.5 14 11.4 41.5 39l37 36.9h61.1l5.5 2.7c16.7 8.5 15.5 35.3-1.9 42-4.2 1.6-8.4 1.8-41.7 1.8-28.9 0-37.9-.3-41-1.4-2.8-.9-7.6-4.9-15.8-13l-11.8-11.5-22.2 22.2-22.2 22.2 17.2 17.2c17.8 17.9 20.4 21.6 21.9 30.5.9 5.7-1.2 13.8-5.2 19.8-1.8 2.7-27.1 28.7-56.1 57.7-58.7 58.6-57.7 57.8-70.3 57.8-20.4 0-35.4-22.3-27.2-40.5 1.9-4 10.7-13.4 45.5-48.3l43.2-43.2-17.7-17.7-17.7-17.7-22.3 22c-19.9 19.7-22.9 22.3-28.1 24.2-5.7 2.2-6.6 2.2-71.7 2.2-62.7 0-66.2-.1-71-1.9-7.2-2.7-11.1-6-14.5-12.2-2.3-4.4-3-6.9-3.3-13.5-.4-7.1-.1-8.9 2-13.5 3.3-7.3 6.7-11 12.4-13.9l4.9-2.5 59-.3 59-.2 50.8-50.8 50.7-50.7-49.2-.5c-48.1-.5-49.4-.6-53.3-2.7-10.1-5.4-14.7-16.9-11.4-28.7 1.4-5 8.3-12.3 13.4-14.1 3.3-1.2 16.4-1.4 75-1.4 69.2-.1 71.1 0 75.5 2z"/></svg>